<svg width="960" height="640" viewBox="0 0 960 640" fill="none" xmlns="http://www.w3.org/2000/svg">
  <rect width="960" height="640" rx="40" fill="url(#bg)"/>
  <circle cx="786" cy="128" r="112" fill="url(#glow)" fill-opacity="0.45"/>
  <circle cx="170" cy="120" r="84" fill="#D7EEF4" fill-opacity="0.35"/>
  <path d="M84 498C84 477.013 101.013 460 122 460H838C858.987 460 876 477.013 876 498V516C876 536.987 858.987 554 838 554H122C101.013 554 84 536.987 84 516V498Z" fill="#0F2740" fill-opacity="0.72"/>
  <rect x="132" y="132" width="258" height="286" rx="24" fill="#123356" fill-opacity="0.9"/>
  <rect x="430" y="96" width="398" height="322" rx="28" fill="#11314D" fill-opacity="0.92"/>
  <rect x="154" y="164" width="214" height="14" rx="7" fill="#355B80"/>
  <rect x="154" y="248" width="214" height="14" rx="7" fill="#355B80"/>
  <rect x="154" y="332" width="214" height="14" rx="7" fill="#355B80"/>
  <rect x="470" y="148" width="318" height="14" rx="7" fill="#355B80"/>
  <rect x="470" y="236" width="318" height="14" rx="7" fill="#355B80"/>
  <rect x="470" y="324" width="318" height="14" rx="7" fill="#355B80"/>

  <rect x="168" y="184" width="24" height="50" rx="7" fill="#F2B872"/>
  <rect x="198" y="176" width="30" height="58" rx="7" fill="#F7D8A2"/>
  <rect x="234" y="188" width="22" height="46" rx="7" fill="#7CC8C1"/>
  <rect x="262" y="170" width="36" height="64" rx="8" fill="#F48A6C"/>
  <rect x="304" y="182" width="28" height="52" rx="7" fill="#91A6FF"/>

  <rect x="168" y="268" width="34" height="52" rx="7" fill="#8ED0F0"/>
  <rect x="208" y="260" width="24" height="60" rx="7" fill="#F2B872"/>
  <rect x="238" y="274" width="42" height="46" rx="7" fill="#F7D8A2"/>
  <rect x="286" y="256" width="28" height="64" rx="7" fill="#7CC8C1"/>
  <rect x="320" y="268" width="20" height="52" rx="7" fill="#F48A6C"/>

  <rect x="168" y="352" width="20" height="46" rx="7" fill="#91A6FF"/>
  <rect x="194" y="344" width="44" height="54" rx="7" fill="#7CC8C1"/>
  <rect x="244" y="338" width="26" height="60" rx="7" fill="#F2B872"/>
  <rect x="276" y="350" width="24" height="48" rx="7" fill="#F48A6C"/>
  <rect x="306" y="342" width="30" height="56" rx="7" fill="#F7D8A2"/>

  <rect x="486" y="168" width="28" height="56" rx="7" fill="#F7D8A2"/>
  <rect x="520" y="160" width="22" height="64" rx="7" fill="#7CC8C1"/>
  <rect x="548" y="174" width="42" height="50" rx="7" fill="#F48A6C"/>
  <rect x="596" y="156" width="26" height="68" rx="7" fill="#91A6FF"/>
  <rect x="628" y="168" width="32" height="56" rx="7" fill="#F2B872"/>
  <rect x="666" y="176" width="24" height="48" rx="7" fill="#F7D8A2"/>
  <rect x="696" y="164" width="36" height="60" rx="8" fill="#7CC8C1"/>
  <rect x="738" y="172" width="32" height="52" rx="7" fill="#F48A6C"/>

  <rect x="486" y="256" width="34" height="56" rx="7" fill="#91A6FF"/>
  <rect x="526" y="264" width="20" height="48" rx="7" fill="#F2B872"/>
  <rect x="552" y="250" width="30" height="62" rx="7" fill="#F7D8A2"/>
  <rect x="588" y="262" width="40" height="50" rx="7" fill="#7CC8C1"/>
  <rect x="634" y="248" width="24" height="64" rx="7" fill="#F48A6C"/>
  <rect x="664" y="258" width="30" height="54" rx="7" fill="#91A6FF"/>
  <rect x="700" y="250" width="26" height="62" rx="7" fill="#F2B872"/>
  <rect x="732" y="264" width="38" height="48" rx="7" fill="#F7D8A2"/>

  <rect x="486" y="344" width="22" height="54" rx="7" fill="#F48A6C"/>
  <rect x="514" y="334" width="44" height="64" rx="7" fill="#8ED0F0"/>
  <rect x="564" y="346" width="28" height="52" rx="7" fill="#F7D8A2"/>
  <rect x="598" y="338" width="24" height="60" rx="7" fill="#7CC8C1"/>
  <rect x="628" y="348" width="42" height="50" rx="7" fill="#F2B872"/>
  <rect x="676" y="340" width="30" height="58" rx="7" fill="#91A6FF"/>
  <rect x="712" y="350" width="26" height="48" rx="7" fill="#F48A6C"/>
  <rect x="744" y="338" width="26" height="60" rx="7" fill="#F7D8A2"/>

  <rect x="338" y="422" width="284" height="18" rx="9" fill="#173D62"/>
  <rect x="430" y="392" width="100" height="42" rx="20" fill="#11314D"/>
  <path d="M452 390C452 373.431 465.431 360 482 360C498.569 360 512 373.431 512 390V418H452V390Z" fill="#F0B58E"/>
  <circle cx="482" cy="344" r="24" fill="#0E1F33"/>
  <path d="M468 338C468 325.85 477.85 316 490 316C502.15 316 512 325.85 512 338V344H468V338Z" fill="#0E1F33"/>
  <rect x="448" y="420" width="68" height="90" rx="26" fill="#E0A16F"/>
  <rect x="440" y="420" width="84" height="54" rx="22" fill="#F0B58E"/>
  <rect x="424" y="430" width="116" height="32" rx="16" fill="#7CC8C1"/>

  <path d="M628 390C628 373.431 641.431 360 658 360C674.569 360 688 373.431 688 390V418H628V390Z" fill="#E6A07B"/>
  <circle cx="658" cy="344" r="24" fill="#241B33"/>
  <path d="M642 340C642 326.745 652.745 316 666 316C679.255 316 690 326.745 690 340V344H642V340Z" fill="#241B33"/>
  <rect x="624" y="420" width="68" height="90" rx="26" fill="#D28A64"/>
  <rect x="618" y="420" width="80" height="54" rx="22" fill="#E6A07B"/>
  <rect x="606" y="430" width="106" height="32" rx="16" fill="#91A6FF"/>
  <rect x="594" y="408" width="124" height="20" rx="10" fill="#173D62"/>

  <rect x="180" y="486" width="168" height="20" rx="10" fill="#21486B"/>
  <rect x="188" y="454" width="150" height="38" rx="18" fill="#173D62"/>
  <rect x="202" y="466" width="54" height="14" rx="7" fill="#F7D8A2"/>
  <rect x="264" y="466" width="62" height="14" rx="7" fill="#8ED0F0"/>

  <defs>
    <linearGradient id="bg" x1="72" y1="52" x2="854" y2="618" gradientUnits="userSpaceOnUse">
      <stop stop-color="#F4F9FB"/>
      <stop offset="0.45" stop-color="#D7ECF4"/>
      <stop offset="1" stop-color="#C6DFF0"/>
    </linearGradient>
    <radialGradient id="glow" cx="0" cy="0" r="1" gradientUnits="userSpaceOnUse" gradientTransform="translate(786 128) rotate(90) scale(112)">
      <stop stop-color="#FFDAA8"/>
      <stop offset="1" stop-color="#FFDAA8" stop-opacity="0"/>
    </radialGradient>
  </defs>
</svg>
